<?xml version="1.0" standalone="no"?>
<!DOCTYPE svg PUBLIC "-//W3C//DTD SVG 20010904//EN" "http://www.w3.org/TR/2001/REC-SVG-20010904/DTD/svg10.dtd">
<svg version="1.0" xmlns="http://www.w3.org/2000/svg"
    width="700.000000pt" height="700.000000pt" viewBox="0 0 700.000000 700.000000"
    preserveAspectRatio="xMidYMid meet">
    <metadata> Created by potrace 1.14, written by Peter Selinger 2001-2017 </metadata>
    <g transform="translate(0.000000,700.000000) scale(0.100000,-0.100000)"
        fill="#000000" stroke="none">
        <path
            d="M413 6986 c-93 -23 -183 -74 -253 -145 -74 -75 -116 -146 -142 -241
-16 -62 -17 -221 -17 -3095 1 -2509 3 -3041 14 -3092 43 -196 226 -370 425
-402 43 -7 446 -11 1180 -11 1224 0 1178 -2 1302 61 82 41 186 145 227 227 65
130 61 -115 61 3217 0 3342 5 3077 -62 3209 -41 80 -145 184 -227 225 -123 62
-85 61 -1326 60 -871 -1 -1142 -4 -1182 -13z" />
        <path
            d="M4154 6985 c-216 -58 -381 -245 -402 -455 -4 -36 -6 -562 -6 -1170 1
-1201 0 -1163 56 -1274 75 -146 219 -257 374 -285 40 -8 418 -11 1189 -11 952
0 1139 3 1185 15 198 52 354 213 394 407 10 50 13 298 11 1203 -1 627 -5 1149
-8 1160 -3 11 -10 34 -15 51 -22 70 -70 151 -127 209 -66 67 -120 103 -211
137 l-59 23 -1165 2 c-961 1 -1174 -1 -1216 -12z" />
        <path
            d="M5258 3295 c-2 -1 -32 -5 -68 -9 -423 -41 -832 -265 -1103 -606 -230
-287 -362 -660 -360 -1015 0 -108 6 -206 14 -250 4 -22 10 -56 13 -75 24 -151
93 -337 195 -525 69 -127 234 -324 356 -424 242 -200 491 -315 810 -372 114
-21 423 -17 535 6 14 3 37 7 51 10 58 11 207 58 287 91 319 132 599 375 776
673 111 185 182 385 222 621 3 14 6 99 8 190 6 246 -30 450 -119 667 -151 373
-449 688 -816 862 -112 53 -300 114 -401 131 -35 5 -81 12 -102 16 -37 5 -293
13 -298 9z" />
    </g>
</svg>